Coordinates
version=1
nRows=65
nColumns=12
inDegrees=yes

Units are S.I. units (second, meters, Newtons, ...)
Angles are in degrees

endheader
time	SC_y	SC_z	SC_x	AC_y	AC_z	AC_x	GH_y	GH_z	GH_yy	EL_x	PS_y
       0.0              -50.17          25.49          35.04          56.01         -7.066         -16.46          171.3          37.42          45.89          75.38          16.16
   0.03478              -50.16          25.49          35.04          56.01         -7.066         -16.45          171.3          37.42           45.9          75.37          16.17
   0.06956              -50.16          25.49          35.04           56.0         -7.067         -16.45          171.3          37.41          45.91          75.36          16.18
    0.1043              -50.15          25.49          35.03           56.0         -7.068         -16.44          171.3          37.41          45.92          75.35          16.19
    0.1391              -50.14          25.49          35.03           56.0         -7.068         -16.44          171.2          37.41          45.93          75.34           16.2
    0.1739              -50.14          25.49          35.03          55.99         -7.069         -16.43          171.2           37.4          45.94          75.33          16.21
    0.2087              -50.13           25.5          35.03          55.99          -7.07         -16.43          171.2           37.4          45.95          75.31          16.22
    0.2435              -50.12           25.5          35.02          55.99         -7.071         -16.42          171.2          37.39          45.97           75.3          16.24
    0.2782              -50.11           25.5          35.02          55.98         -7.072         -16.42          171.2          37.39          45.98          75.29          16.25
     0.313               -50.1           25.5          35.02          55.98         -7.073         -16.41          171.1          37.38          45.99          75.27          16.27
    0.3478              -50.09           25.5          35.01          55.98         -7.074          -16.4          171.1          37.38          46.01          75.25          16.28
    0.3826              -50.08          25.51          35.01          55.97         -7.075          -16.4          171.1          37.37          46.02          75.23           16.3
    0.4173              -50.07          25.51          35.01          55.97         -7.076         -16.39          171.1          37.37          46.04          75.22          16.32
    0.4521              -50.06          25.51           35.0          55.96         -7.078         -16.38          171.0          37.36          46.06          75.19          16.34
    0.4869              -50.04          25.51           35.0          55.96         -7.079         -16.37          171.0          37.35          46.08          75.17          16.36
    0.5217              -50.03          25.52          34.99          55.95         -7.081         -16.36          171.0          37.34           46.1          75.15          16.39
    0.5565              -50.01          25.52          34.99          55.94         -7.083         -16.35          170.9          37.33          46.13          75.12          16.42
    0.5912               -50.0          25.52          34.98          55.94         -7.085         -16.34          170.9          37.33          46.15          75.09          16.45
     0.626              -49.98          25.53          34.97          55.93         -7.087         -16.32          170.8          37.31          46.18          75.06          16.48
    0.6608              -49.95          25.53          34.96          55.92         -7.089         -16.31          170.8           37.3          46.21          75.02          16.51
    0.6956              -49.93          25.54          34.96          55.91         -7.092         -16.29          170.7          37.29          46.25          74.99          16.55
    0.7304              -49.91          25.54          34.95           55.9         -7.094         -16.28          170.7          37.28          46.29          74.94          16.59
    0.7651              -49.88          25.55          34.94          55.89         -7.097         -16.26          170.6          37.26          46.33           74.9          16.64
    0.7999              -49.85          25.55          34.93          55.87         -7.101         -16.24          170.5          37.24          46.37          74.85          16.69
    0.8347              -49.81          25.56          34.91          55.86         -7.105         -16.21          170.4          37.23          46.43          74.79          16.75
    0.8695              -49.77          25.57           34.9          55.84         -7.109         -16.19          170.3           37.2          46.48          74.73          16.81
    0.9043              -49.73          25.58          34.88          55.83         -7.114         -16.16          170.2          37.18          46.55          74.65          16.88
     0.939              -49.68          25.59          34.87          55.81         -7.119         -16.12          170.1          37.15          46.62          74.57          16.96
    0.9738              -49.63           25.6          34.85          55.78         -7.125         -16.09          170.0          37.12           46.7          74.48          17.06
     1.009              -49.56          25.61          34.83          55.76         -7.132         -16.04          169.8          37.09           46.8          74.38          17.16
     1.043              -49.49          25.62           34.8          55.73          -7.14         -15.99          169.7          37.05           46.9          74.26          17.28
     1.078              -49.41          25.64          34.77          55.69         -7.149         -15.94          169.5          37.01          47.02          74.13          17.41
     1.113              -49.31          25.66          34.74          55.66         -7.159         -15.87          169.2          36.96          47.16          73.97          17.57
     1.148               -49.2          25.68           34.7          55.61         -7.171          -15.8          169.0           36.9          47.33          73.79          17.75
     1.182              -49.08          25.71          34.65          55.56         -7.185         -15.71          168.7          36.83          47.52          73.58          17.96
     1.217              -48.92          25.74           34.6          55.49         -7.201         -15.61          168.3          36.74          47.75          73.33          18.21
     1.252              -48.74          25.78          34.53          55.42         -7.221         -15.49          167.9          36.65          48.01          73.03          18.51
     1.287              -48.53          25.82          34.46          55.33         -7.245         -15.34          167.3          36.53          48.34          72.67          18.87
     1.322              -48.27          25.87          34.36          55.22         -7.273         -15.16          166.7          36.39          48.72          72.24           19.3
     1.356              -47.95          25.94          34.25          55.09         -7.308         -14.94          165.9          36.21           49.2          71.72          19.83
     1.391              -47.55          26.02          34.11          54.93         -7.351         -14.67          165.0           36.0          49.79          71.07          20.48
     1.426              -47.06          26.12          33.93          54.72         -7.405         -14.34          163.8          35.73          50.52          70.26          21.29
     1.461              -46.44          26.24          33.71          54.47         -7.472         -13.92          162.3           35.4          51.44          69.24          22.31
     1.496              -45.65           26.4          33.43          54.14         -7.558         -13.38          160.4          34.97          52.61          67.94          23.61
      1.53              -44.64          26.61          33.07          53.73         -7.668          -12.7          157.9          34.42          54.11          66.28          25.28
     1.565              -43.35          26.87          32.61          53.19          -7.81         -11.82          154.8          33.72          56.03          64.15          27.41
       1.6               -41.7          27.21          32.02          52.51          -7.99         -10.69          150.8          32.82          58.49          61.43          30.14
     1.635              -39.62          27.63          31.28          51.65         -8.217         -9.278          145.8          31.69          61.58          58.01          33.57
     1.669              -37.09          28.14          30.37          50.61         -8.493         -7.555          139.7          30.32          65.35          53.84          37.75
     1.704              -34.15          28.74          29.33           49.4         -8.813         -5.558          132.6          28.73          69.71           49.0           42.6
     1.739              -30.97          29.39          28.19          48.08          -9.16         -3.396          124.9           27.0          74.44          43.77          47.85
     1.774              -27.79          30.03          27.06          46.77         -9.507         -1.233          117.2          25.27          79.16          38.53          53.09
     1.809              -24.86          30.63          26.01          45.56         -9.827         0.7638          110.1          23.68          83.53           33.7          57.94
     1.843              -22.33          31.14          25.11          44.51          -10.1          2.487          104.0          22.31          87.29          29.53          62.12
     1.878              -20.25          31.56          24.37          43.66         -10.33            3.9          98.95          21.18          90.38          26.11          65.55
     1.913               -18.6           31.9          23.78          42.97         -10.51          5.025          94.95          20.28          92.84          23.39          68.28
     1.948               -17.3          32.16          23.32          42.44         -10.65          5.905          91.82          19.58          94.76          21.25          70.41
     1.982              -16.29          32.37          22.96          42.02         -10.76          6.591          89.38          19.03          96.26          19.59          72.08
     2.017              -15.51          32.53          22.68           41.7         -10.85          7.127          87.48           18.6          97.43           18.3          73.38
     2.052              -14.89          32.65          22.46          41.44         -10.91          7.549          85.98          18.27          98.35          17.28           74.4
     2.087              -14.39          32.75          22.28          41.24         -10.97          7.883          84.79           18.0          99.08          16.47          75.21
     2.122               -14.0          32.83          22.14          41.08         -11.01          8.152          83.83          17.79          99.67          15.82          75.87
     2.156              -13.68           32.9          22.02          40.94         -11.05          8.369          83.06          17.61          100.1          15.29          76.39
     2.191              -13.42          32.95          21.93          40.84         -11.07          8.547          82.43          17.47          100.5          14.86          76.83
     2.226               -13.2          32.99          21.85          40.75          -11.1          8.694           81.9          17.35          100.9           14.5          77.18
